<svg width="20" height="20" viewBox="0 0 20 20" fill="none" xmlns="http://www.w3.org/2000/svg">
<g clip-path="url(#clip0_1764_15154)">
<path d="M9.99935 1.66663C5.39697 1.66663 1.66602 5.39758 1.66602 9.99996C1.66602 14.6023 5.39697 18.3333 9.99935 18.3333C14.6017 18.3333 18.3327 14.6023 18.3327 9.99996C18.3327 5.39758 14.6017 1.66663 9.99935 1.66663Z" stroke="#39CB7B" stroke-width="1.5" stroke-linecap="round" stroke-linejoin="round"/>
<path d="M3.55859 15.288C3.55859 15.288 5.41611 12.9166 9.99943 12.9166C14.5828 12.9166 16.4403 15.288 16.4403 15.288" stroke="#39CB7B" stroke-width="1.5" stroke-linecap="round" stroke-linejoin="round"/>
<path d="M10 10C11.3807 10 12.5 8.88075 12.5 7.5C12.5 6.11929 11.3807 5 10 5C8.61925 5 7.5 6.11929 7.5 7.5C7.5 8.88075 8.61925 10 10 10Z" stroke="#39CB7B" stroke-width="1.5" stroke-linecap="round" stroke-linejoin="round"/>
</g>
<defs>
<clipPath id="clip0_1764_15154">
<rect width="20" height="20" fill="white"/>
</clipPath>
</defs>
</svg>
