<svg width="18" height="18" viewBox="0 0 18 18" fill="none" xmlns="http://www.w3.org/2000/svg">
<path d="M8.99935 4.83341C8.54102 4.83341 8.16602 5.20841 8.16602 5.66675V8.16675H5.66602C5.20768 8.16675 4.83268 8.54175 4.83268 9.00008C4.83268 9.45841 5.20768 9.83341 5.66602 9.83341H8.16602V12.3334C8.16602 12.7917 8.54102 13.1667 8.99935 13.1667C9.45768 13.1667 9.83268 12.7917 9.83268 12.3334V9.83341H12.3327C12.791 9.83341 13.166 9.45841 13.166 9.00008C13.166 8.54175 12.791 8.16675 12.3327 8.16675H9.83268V5.66675C9.83268 5.20841 9.45768 4.83341 8.99935 4.83341ZM8.99935 0.666748C4.39935 0.666748 0.666016 4.40008 0.666016 9.00008C0.666016 13.6001 4.39935 17.3334 8.99935 17.3334C13.5993 17.3334 17.3327 13.6001 17.3327 9.00008C17.3327 4.40008 13.5993 0.666748 8.99935 0.666748ZM8.99935 15.6667C5.32435 15.6667 2.33268 12.6751 2.33268 9.00008C2.33268 5.32508 5.32435 2.33341 8.99935 2.33341C12.6743 2.33341 15.666 5.32508 15.666 9.00008C15.666 12.6751 12.6743 15.6667 8.99935 15.6667Z" fill="white"/>
</svg>
