<svg width="15" height="16" viewBox="0 0 15 16" fill="none" xmlns="http://www.w3.org/2000/svg">
<g clip-path="url(#clip0_2279_15188)">
<path d="M9.375 13H3.125V4.875C3.125 4.53125 2.84375 4.25 2.5 4.25C2.15625 4.25 1.875 4.53125 1.875 4.875V13C1.875 13.6875 2.4375 14.25 3.125 14.25H9.375C9.71875 14.25 10 13.9688 10 13.625C10 13.2813 9.71875 13 9.375 13ZM12.5 10.5V3C12.5 2.3125 11.9375 1.75 11.25 1.75H5.625C4.9375 1.75 4.375 2.3125 4.375 3V10.5C4.375 11.1875 4.9375 11.75 5.625 11.75H11.25C11.9375 11.75 12.5 11.1875 12.5 10.5ZM11.25 10.5H5.625V3H11.25V10.5Z" fill="#757575" fill-opacity="0.6"/>
</g>
<defs>
<clipPath id="clip0_2279_15188">
<rect width="15" height="15" fill="white" transform="translate(0 0.5)"/>
</clipPath>
</defs>
</svg>
