<svg width="20" height="21" viewBox="0 0 20 21" fill="none" xmlns="http://www.w3.org/2000/svg">
<path fill-rule="evenodd" clip-rule="evenodd" d="M9.99935 2.37427C9.23796 2.37427 8.49113 2.58289 7.83997 2.97748L3.67331 5.50248C3.06059 5.87378 2.55395 6.39679 2.20234 7.02101C1.85072 7.64523 1.666 8.34957 1.66602 9.06601V14.3093C1.66602 15.4144 2.105 16.4742 2.8864 17.2556C3.6678 18.037 4.72761 18.476 5.83268 18.476H14.166C15.2711 18.476 16.3309 18.037 17.1123 17.2556C17.8937 16.4742 18.3327 15.4144 18.3327 14.3093V9.06517C18.3325 8.34891 18.1477 7.64459 17.7961 7.02056C17.4445 6.39654 16.938 5.87369 16.3254 5.50249L12.1587 2.97749C11.5076 2.5829 10.7607 2.37427 9.99935 2.37427ZM8.70373 4.40285C9.09443 4.16611 9.54252 4.04093 9.99935 4.04093C10.4562 4.04093 10.9043 4.16611 11.295 4.40285L15.4616 6.92786C15.8292 7.15058 16.1331 7.46429 16.3441 7.83871C16.555 8.21307 16.6659 8.63548 16.666 9.06517V14.3093C16.666 14.9724 16.4026 15.6083 15.9338 16.0771C15.4649 16.5459 14.8291 16.8093 14.166 16.8093H13.3327V14.3093C13.3327 13.4253 12.9815 12.5774 12.3564 11.9523C11.7312 11.3272 10.8834 10.976 9.99935 10.976C9.11529 10.976 8.26745 11.3272 7.64233 11.9523C7.0172 12.5774 6.66601 13.4253 6.66601 14.3093V16.8093H5.83268C5.16964 16.8093 4.53376 16.5459 4.06491 16.0771C3.59607 15.6083 3.33268 14.9724 3.33268 14.3093V9.06601C3.33267 8.63614 3.4435 8.21352 3.65447 7.83898C3.86544 7.46445 4.16942 7.15064 4.53706 6.92786L8.70373 4.40285ZM11.1779 13.1308C11.4904 13.4434 11.666 13.8673 11.666 14.3093V16.8093H8.33268V14.3093C8.33268 13.8673 8.50828 13.4434 8.82084 13.1308C9.1334 12.8183 9.55732 12.6427 9.99935 12.6427C10.4414 12.6427 10.8653 12.8183 11.1779 13.1308Z" fill="white"/>
</svg>
