<svg width="18" height="19" viewBox="0 0 18 19" fill="none" xmlns="http://www.w3.org/2000/svg">
<path fill-rule="evenodd" clip-rule="evenodd" d="M5.66601 1.66671C5.66601 1.20647 5.29292 0.833374 4.83268 0.833374C4.37244 0.833374 3.99935 1.20647 3.99935 1.66671V2.50004H3.16602C2.50297 2.50004 1.86709 2.76343 1.39825 3.23227C0.929408 3.70111 0.666016 4.337 0.666016 5.00004V15.8334C0.666016 16.4964 0.929408 17.1323 1.39825 17.6011C1.86709 18.07 2.50297 18.3334 3.16602 18.3334H14.8327C15.4957 18.3334 16.1316 18.07 16.6004 17.6011C17.0693 17.1323 17.3327 16.4964 17.3327 15.8334V5.00004C17.3327 4.337 17.0693 3.70111 16.6004 3.23227C16.1316 2.76343 15.4957 2.50004 14.8327 2.50004H14.416C13.9558 2.50004 13.5827 2.87314 13.5827 3.33337C13.5827 3.79361 13.9558 4.16671 14.416 4.16671H14.8327C15.0537 4.16671 15.2657 4.2545 15.4219 4.41079C15.5782 4.56707 15.666 4.77903 15.666 5.00004V7.50004H2.33268V5.00004C2.33268 4.77903 2.42048 4.56707 2.57676 4.41079C2.73304 4.2545 2.945 4.16671 3.16602 4.16671H3.99935V5.00004C3.99935 5.46028 4.37244 5.83337 4.83268 5.83337C5.29292 5.83337 5.66601 5.46028 5.66601 5.00004V1.66671ZM2.57676 16.4226C2.42048 16.2663 2.33268 16.0544 2.33268 15.8334V9.16671H15.666V15.8334C15.666 16.0544 15.5782 16.2663 15.4219 16.4226C15.2657 16.5789 15.0537 16.6667 14.8327 16.6667H3.16602C2.945 16.6667 2.73304 16.5789 2.57676 16.4226Z" fill="white"/>
<path d="M12.3327 1.66671C12.3327 1.20647 11.9596 0.833374 11.4993 0.833374C11.0391 0.833374 10.666 1.20647 10.666 1.66671V2.50004H7.74935C7.28911 2.50004 6.91601 2.87314 6.91601 3.33337C6.91601 3.79361 7.28911 4.16671 7.74935 4.16671H10.666V5.00004C10.666 5.46028 11.0391 5.83337 11.4993 5.83337C11.9596 5.83337 12.3327 5.46028 12.3327 5.00004V1.66671Z" fill="white"/>
</svg>
