<svg width="20" height="21" viewBox="0 0 20 21" fill="none" xmlns="http://www.w3.org/2000/svg">
<g clip-path="url(#clip0_1846_2469)">
<path fill-rule="evenodd" clip-rule="evenodd" d="M6.66601 1.80953C6.66601 1.34929 6.29292 0.976196 5.83268 0.976196C5.37244 0.976196 4.99935 1.34929 4.99935 1.80953V2.64286H4.16602C3.50297 2.64286 2.86709 2.90625 2.39825 3.3751C1.92941 3.84394 1.66602 4.47982 1.66602 5.14286V15.9762C1.66602 16.6392 1.92941 17.2751 2.39825 17.744C2.86709 18.2128 3.50297 18.4762 4.16602 18.4762H15.8327C16.4957 18.4762 17.1316 18.2128 17.6004 17.744C18.0693 17.2751 18.3327 16.6392 18.3327 15.9762V5.14286C18.3327 4.47982 18.0693 3.84394 17.6004 3.3751C17.1316 2.90626 16.4957 2.64286 15.8327 2.64286H15.416C14.9558 2.64286 14.5827 3.01596 14.5827 3.4762C14.5827 3.93643 14.9558 4.30953 15.416 4.30953H15.8327C16.0537 4.30953 16.2657 4.39733 16.4219 4.55361C16.5782 4.70989 16.666 4.92185 16.666 5.14286V7.64286H3.33268V5.14286C3.33268 4.92185 3.42048 4.70989 3.57676 4.55361C3.73304 4.39733 3.945 4.30953 4.16602 4.30953H4.99935V5.14286C4.99935 5.6031 5.37244 5.9762 5.83268 5.9762C6.29292 5.9762 6.66601 5.6031 6.66601 5.14286V1.80953ZM3.57676 16.5655C3.42048 16.4092 3.33268 16.1972 3.33268 15.9762V9.30953H16.666V15.9762C16.666 16.1972 16.5782 16.4092 16.4219 16.5655C16.2657 16.7217 16.0537 16.8095 15.8327 16.8095H4.16602C3.945 16.8095 3.73304 16.7217 3.57676 16.5655Z" fill="#A0A9CB"/>
<path d="M13.3327 1.80953C13.3327 1.34929 12.9596 0.976196 12.4993 0.976196C12.0391 0.976196 11.666 1.34929 11.666 1.80953V2.64286H8.74935C8.28911 2.64286 7.91601 3.01596 7.91601 3.4762C7.91601 3.93643 8.28911 4.30953 8.74935 4.30953H11.666V5.14286C11.666 5.6031 12.0391 5.9762 12.4993 5.9762C12.9596 5.9762 13.3327 5.6031 13.3327 5.14286V1.80953Z" fill="#A0A9CB"/>
</g>
<defs>
<clipPath id="clip0_1846_2469">
<rect width="20" height="20" fill="white" transform="translate(0 0.142822)"/>
</clipPath>
</defs>
</svg>
