<svg width="36" height="37" viewBox="0 0 36 37" fill="none" xmlns="http://www.w3.org/2000/svg">
<path d="M11.3333 11H24.6667C25.127 11 25.5001 11.373 25.5001 11.8332L25.5002 13.1547C25.5003 13.3758 25.4125 13.5878 25.2562 13.7441L19.9107 19.0893C19.7545 19.2455 19.6667 19.4575 19.6667 19.6785V24.9327C19.6667 25.4748 19.1572 25.8727 18.6312 25.7412L16.9646 25.3245C16.5936 25.2318 16.3333 24.8984 16.3333 24.516V19.6785C16.3333 19.4575 16.2455 19.2455 16.0893 19.0893L10.7441 13.7441C10.5878 13.5878 10.5 13.3758 10.5 13.1548V11.8333C10.5 11.3731 10.8731 11 11.3333 11Z" stroke="#232323" stroke-width="1.5" stroke-linecap="round" stroke-linejoin="round"/>
</svg>
