<svg width="10" height="10" viewBox="0 0 10 10" fill="none" xmlns="http://www.w3.org/2000/svg">
<path d="M5.41211 1.9333L7.20763 3.7294L7.20764 3.72941C7.28508 3.80684 7.3901 3.85034 7.49961 3.85034C7.60911 3.85034 7.71413 3.80684 7.79157 3.72941C7.869 3.65198 7.9125 3.54695 7.9125 3.43745C7.9125 3.38323 7.90182 3.32953 7.88107 3.27944C7.86032 3.22935 7.82991 3.18383 7.79157 3.14549L7.72101 3.21605L7.79157 3.14549L5.29166 0.645577C5.29164 0.645557 5.29161 0.645536 5.29159 0.645516L5.41211 1.9333ZM5.41211 1.9333L5.41211 9.06245C5.41211 9.17185 5.36865 9.27677 5.29129 9.35413C5.21393 9.43149 5.10901 9.47495 4.99961 9.47495C4.8902 9.47495 4.78528 9.43149 4.70792 9.35413C4.63056 9.27677 4.58711 9.17185 4.58711 9.06245L4.58711 1.9333L2.79158 3.7294L2.79157 3.72941C2.71413 3.80684 2.60911 3.85034 2.49961 3.85034C2.3901 3.85034 2.28508 3.80684 2.20764 3.72941C2.13021 3.65198 2.08671 3.54695 2.08671 3.43745C2.08671 3.32794 2.13021 3.22292 2.20764 3.14549L4.70756 0.645577C4.70758 0.645557 4.7076 0.645537 4.70762 0.645517L5.41211 1.9333Z" fill="#39CB7B" stroke="#39CB7B" stroke-width="0.2"/>
</svg>
