<svg width="49" height="48" viewBox="0 0 49 48" fill="none" xmlns="http://www.w3.org/2000/svg">
<g clip-path="url(#clip0_2261_8543)">
<path d="M15.0869 15L33.0869 33" stroke="#232323" stroke-width="1.5" stroke-linecap="round" stroke-linejoin="round"/>
<path d="M22.5869 22.6771C22.2757 23.0296 22.0869 23.4928 22.0869 24C22.0869 25.1045 22.9823 26 24.0869 26C24.5941 26 25.0572 25.8112 25.4098 25.5" stroke="#232323" stroke-width="1.5" stroke-linecap="round" stroke-linejoin="round"/>
<path d="M19.4488 19.5612C17.7669 20.7397 16.3659 22.4189 15.0869 24.0001C16.9755 26.9911 20.3686 30.0001 24.0869 30.0001C25.6368 30.0001 27.1303 29.4773 28.4818 28.6509" stroke="#232323" stroke-width="1.5" stroke-linecap="round" stroke-linejoin="round"/>
<path d="M24.0869 18C28.0953 18 30.7884 21.1582 33.0869 24C32.7684 24.5043 32.4072 25.0092 32.0089 25.5" stroke="#232323" stroke-width="1.5" stroke-linecap="round" stroke-linejoin="round"/>
</g>
<defs>
<clipPath id="clip0_2261_8543">
<rect x="4.08691" y="4" width="40" height="40" rx="20" fill="white"/>
</clipPath>
</defs>
</svg>
