<svg width="20" height="20" viewBox="0 0 20 20" fill="none" xmlns="http://www.w3.org/2000/svg">
<path d="M5.83398 1.66675C5.17094 1.66675 4.53506 1.93014 4.06622 2.39898C3.59738 2.86782 3.33398 3.50371 3.33398 4.16675V15.8334C3.33398 16.4965 3.59738 17.1323 4.06622 17.6012C4.53506 18.07 5.17094 18.3334 5.83398 18.3334H14.1673C14.8304 18.3334 15.4662 18.07 15.9351 17.6012C16.4039 17.1323 16.6673 16.4965 16.6673 15.8334V15.0001C16.6673 14.5398 16.2942 14.1667 15.834 14.1667C15.3737 14.1667 15.0007 14.5398 15.0007 15.0001V15.8334C15.0007 16.0544 14.9129 16.2664 14.7566 16.4227C14.6003 16.579 14.3883 16.6667 14.1673 16.6667H5.83398C5.61297 16.6667 5.40101 16.579 5.24473 16.4227C5.08845 16.2664 5.00065 16.0544 5.00065 15.8334V4.16675C5.00065 3.94573 5.08845 3.73377 5.24473 3.57749C5.40101 3.42121 5.61297 3.33341 5.83398 3.33341H14.1673C14.3883 3.33341 14.6003 3.42121 14.7566 3.57749C14.9129 3.73377 15.0007 3.94573 15.0007 4.16675V5.00008C15.0007 5.46032 15.3737 5.83341 15.834 5.83341C16.2942 5.83341 16.6673 5.46032 16.6673 5.00008V4.16675C16.6673 3.50371 16.4039 2.86782 15.9351 2.39898C15.4662 1.93014 14.8304 1.66675 14.1673 1.66675H5.83398Z" fill="white"/>
<path d="M13.9232 6.91083C13.5978 6.58539 13.0702 6.58539 12.7447 6.91083C12.4193 7.23626 12.4193 7.7639 12.7447 8.08934L13.8221 9.16675H10.0007C9.54041 9.16675 9.16732 9.53984 9.16732 10.0001C9.16732 10.4603 9.54041 10.8334 10.0007 10.8334H13.8221L12.7447 11.9108C12.4193 12.2363 12.4193 12.7639 12.7447 13.0893C13.0702 13.4148 13.5978 13.4148 13.9232 13.0893L16.4232 10.5893C16.7487 10.2639 16.7487 9.73626 16.4232 9.41083L13.9232 6.91083Z" fill="white"/>
</svg>
