<svg width="20" height="20" viewBox="0 0 20 20" fill="none" xmlns="http://www.w3.org/2000/svg">
<g clip-path="url(#clip0_1764_15147)">
<path d="M15 6.99996C15 5.58547 14.4732 4.22892 13.5355 3.22873C12.5978 2.22853 11.3261 1.66663 10 1.66663C8.67392 1.66663 7.40215 2.22853 6.46447 3.22873C5.52678 4.22892 5 5.58547 5 6.99996C5 13.2222 2.5 15 2.5 15H17.5C17.5 15 15 13.2222 15 6.99996Z" stroke="#FFBC0E" stroke-width="1.5" stroke-linecap="round" stroke-linejoin="round"/>
<path d="M11.4419 17.5C11.2954 17.7526 11.0852 17.9622 10.8321 18.1079C10.5791 18.2537 10.2923 18.3304 10.0003 18.3304C9.70826 18.3304 9.42143 18.2537 9.16843 18.1079C8.91543 17.9622 8.70509 17.7526 8.55859 17.5" stroke="#FFBC0E" stroke-width="1.5" stroke-linecap="round" stroke-linejoin="round"/>
<g filter="url(#filter0_d_1764_15147)">
<circle cx="14.166" cy="4.16663" r="2.5" fill="#FF0000"/>
</g>
</g>
<defs>
<filter id="filter0_d_1764_15147" x="7.46602" y="-2.53337" width="13.4" height="13.4" filterUnits="userSpaceOnUse" color-interpolation-filters="sRGB">
<feFlood flood-opacity="0" result="BackgroundImageFix"/>
<feColorMatrix in="SourceAlpha" type="matrix" values="0 0 0 0 0 0 0 0 0 0 0 0 0 0 0 0 0 0 127 0" result="hardAlpha"/>
<feOffset/>
<feGaussianBlur stdDeviation="2.1"/>
<feComposite in2="hardAlpha" operator="out"/>
<feColorMatrix type="matrix" values="0 0 0 0 1 0 0 0 0 0.337255 0 0 0 0 0.337255 0 0 0 0.59 0"/>
<feBlend mode="normal" in2="BackgroundImageFix" result="effect1_dropShadow_1764_15147"/>
<feBlend mode="normal" in="SourceGraphic" in2="effect1_dropShadow_1764_15147" result="shape"/>
</filter>
<clipPath id="clip0_1764_15147">
<rect width="20" height="20" fill="white"/>
</clipPath>
</defs>
</svg>
