<svg width="20" height="21" viewBox="0 0 20 21" fill="none" xmlns="http://www.w3.org/2000/svg">
<path d="M9.99935 2.09521C5.39697 2.09521 1.66602 5.82617 1.66602 10.4285C1.66602 15.0309 5.39697 18.7619 9.99935 18.7619C14.6017 18.7619 18.3327 15.0309 18.3327 10.4285C18.3327 5.82617 14.6017 2.09521 9.99935 2.09521Z" stroke="#A0A9CB" stroke-width="1.5" stroke-linecap="round" stroke-linejoin="round"/>
<path d="M3.55859 15.7166C3.55859 15.7166 5.41611 13.3452 9.99943 13.3452C14.5828 13.3452 16.4403 15.7166 16.4403 15.7166" stroke="#A0A9CB" stroke-width="1.5" stroke-linecap="round" stroke-linejoin="round"/>
<path d="M10 10.4286C11.3807 10.4286 12.5 9.30934 12.5 7.92859C12.5 6.54788 11.3807 5.42859 10 5.42859C8.61925 5.42859 7.5 6.54788 7.5 7.92859C7.5 9.30934 8.61925 10.4286 10 10.4286Z" stroke="#A0A9CB" stroke-width="1.5" stroke-linecap="round" stroke-linejoin="round"/>
</svg>
