<svg width="20" height="21" viewBox="0 0 20 21" fill="none" xmlns="http://www.w3.org/2000/svg">
<path d="M9.99935 2.09528C5.39697 2.09528 1.66602 5.82623 1.66602 10.4286C1.66602 15.0309 5.39697 18.7619 9.99935 18.7619C14.6017 18.7619 18.3327 15.0309 18.3327 10.4286C18.3327 5.82623 14.6017 2.09528 9.99935 2.09528Z" stroke="white" stroke-width="1.5" stroke-linecap="round" stroke-linejoin="round"/>
<path d="M3.55859 15.7167C3.55859 15.7167 5.41611 13.3453 9.99943 13.3453C14.5828 13.3453 16.4403 15.7167 16.4403 15.7167" stroke="white" stroke-width="1.5" stroke-linecap="round" stroke-linejoin="round"/>
<path d="M10 10.4286C11.3807 10.4286 12.5 9.30937 12.5 7.92862C12.5 6.54791 11.3807 5.42862 10 5.42862C8.61925 5.42862 7.5 6.54791 7.5 7.92862C7.5 9.30937 8.61925 10.4286 10 10.4286Z" stroke="white" stroke-width="1.5" stroke-linecap="round" stroke-linejoin="round"/>
</svg>
