<svg width="8" height="10" viewBox="0 0 8 10" fill="none" xmlns="http://www.w3.org/2000/svg">
<path d="M3.58789 8.06658L1.79237 6.27048L1.79236 6.27047C1.71492 6.19304 1.6099 6.14953 1.50039 6.14953C1.39089 6.14953 1.28587 6.19304 1.20843 6.27047C1.131 6.3479 1.0875 6.45292 1.0875 6.56243C1.0875 6.61665 1.09818 6.67034 1.11893 6.72044C1.13968 6.77053 1.17009 6.81605 1.20843 6.85439L1.27899 6.78383L1.20843 6.85439L3.70834 9.3543C3.70836 9.35432 3.70839 9.35434 3.70841 9.35436L3.58789 8.06658ZM3.58789 8.06658V0.937429C3.58789 0.828028 3.63135 0.723106 3.70871 0.645747C3.78607 0.568389 3.89099 0.524929 4.00039 0.524929C4.1098 0.524929 4.21472 0.568389 4.29208 0.645747C4.36944 0.723106 4.41289 0.828028 4.41289 0.937429V8.06658L6.20842 6.27048L6.20843 6.27047C6.28587 6.19304 6.39089 6.14953 6.50039 6.14953C6.6099 6.14953 6.71492 6.19304 6.79236 6.27047C6.86979 6.3479 6.91329 6.45292 6.91329 6.56243C6.91329 6.67194 6.86979 6.77696 6.79236 6.85439L4.29244 9.3543C4.29242 9.35432 4.2924 9.35434 4.29238 9.35436L3.58789 8.06658Z" fill="#FF0000" stroke="#FF0000" stroke-width="0.2"/>
</svg>
