<svg width="16" height="20" viewBox="0 0 16 20" fill="none" xmlns="http://www.w3.org/2000/svg">
<path d="M4.66667 7.64286C4.20643 7.64286 3.83333 8.01596 3.83333 8.4762C3.83333 8.93643 4.20643 9.30953 4.66667 9.30953H11.3333C11.7936 9.30953 12.1667 8.93643 12.1667 8.4762C12.1667 8.01596 11.7936 7.64286 11.3333 7.64286H4.66667Z" fill="#A0A9CB"/>
<path d="M4.66667 10.9762C4.20643 10.9762 3.83333 11.3493 3.83333 11.8095C3.83333 12.2698 4.20643 12.6429 4.66667 12.6429H8C8.46024 12.6429 8.83333 12.2698 8.83333 11.8095C8.83333 11.3493 8.46024 10.9762 8 10.9762H4.66667Z" fill="#A0A9CB"/>
<path d="M4.66667 14.3095C4.20643 14.3095 3.83333 14.6826 3.83333 15.1429C3.83333 15.6031 4.20643 15.9762 4.66667 15.9762H11.3333C11.7936 15.9762 12.1667 15.6031 12.1667 15.1429C12.1667 14.6826 11.7936 14.3095 11.3333 14.3095H4.66667Z" fill="#A0A9CB"/>
<path fill-rule="evenodd" clip-rule="evenodd" d="M15.399 4.42418C15.3319 4.26188 15.2335 4.11442 15.1093 3.99027L12.4863 1.36731C12.2365 1.11719 11.8976 0.976508 11.5441 0.976196H1.83333C1.47971 0.976196 1.14057 1.11667 0.890524 1.36672C0.640476 1.61677 0.5 1.95591 0.5 2.30953V17.9762C0.5 18.1513 0.534488 18.3247 0.601494 18.4864C0.668499 18.6482 0.766711 18.7952 0.890524 18.919C1.01433 19.0428 1.16132 19.141 1.32309 19.208C1.48486 19.275 1.65824 19.3095 1.83333 19.3095H14.1667C14.3418 19.3095 14.5151 19.275 14.6769 19.208C14.8387 19.141 14.9857 19.0428 15.1095 18.919C15.2333 18.7952 15.3315 18.6482 15.3985 18.4864C15.4655 18.3247 15.5 18.1513 15.5 17.9762V4.93479L14.6667 4.93453L15.5 4.93657L15.5 4.93479C15.5002 4.75961 15.4659 4.5861 15.399 4.42418ZM10.5 4.7262C10.5 5.41655 11.0596 5.9762 11.75 5.9762H13.8333V17.6429H2.16667V2.64286H10.5V4.7262ZM13.0715 4.30953L12.1667 3.40471V4.30953H13.0715Z" fill="#A0A9CB"/>
</svg>
