<svg width="16" height="20" viewBox="0 0 16 20" fill="none" xmlns="http://www.w3.org/2000/svg">
<path d="M4.66667 7.50004C4.20643 7.50004 3.83333 7.87314 3.83333 8.33337C3.83333 8.79361 4.20643 9.16671 4.66667 9.16671H11.3333C11.7936 9.16671 12.1667 8.79361 12.1667 8.33337C12.1667 7.87314 11.7936 7.50004 11.3333 7.50004H4.66667Z" fill="white"/>
<path d="M4.66667 10.8334C4.20643 10.8334 3.83333 11.2065 3.83333 11.6667C3.83333 12.1269 4.20643 12.5 4.66667 12.5H8C8.46024 12.5 8.83333 12.1269 8.83333 11.6667C8.83333 11.2065 8.46024 10.8334 8 10.8334H4.66667Z" fill="white"/>
<path d="M4.66667 14.1667C4.20643 14.1667 3.83333 14.5398 3.83333 15C3.83333 15.4603 4.20643 15.8334 4.66667 15.8334H11.3333C11.7936 15.8334 12.1667 15.4603 12.1667 15C12.1667 14.5398 11.7936 14.1667 11.3333 14.1667H4.66667Z" fill="white"/>
<path fill-rule="evenodd" clip-rule="evenodd" d="M15.399 4.28136C15.3319 4.11906 15.2335 3.9716 15.1093 3.84745L12.4863 1.22449C12.2365 0.974366 11.8976 0.833686 11.5441 0.833374H1.83333C1.47971 0.833374 1.14057 0.97385 0.890524 1.2239C0.640476 1.47395 0.5 1.81309 0.5 2.16671V17.8334C0.5 18.0085 0.534488 18.1819 0.601494 18.3436C0.668499 18.5054 0.766711 18.6524 0.890524 18.7762C1.01433 18.9 1.16132 18.9982 1.32309 19.0652C1.48486 19.1322 1.65824 19.1667 1.83333 19.1667H14.1667C14.3418 19.1667 14.5151 19.1322 14.6769 19.0652C14.8387 18.9982 14.9857 18.9 15.1095 18.7762C15.2333 18.6524 15.3315 18.5054 15.3985 18.3436C15.4655 18.1818 15.5 18.0085 15.5 17.8334V4.79197L14.6667 4.79171L15.5 4.79375L15.5 4.79197C15.5002 4.61678 15.4659 4.44328 15.399 4.28136ZM10.5 4.58337C10.5 5.27373 11.0596 5.83337 11.75 5.83337H13.8333V17.5H2.16667V2.50004H10.5V4.58337ZM13.0715 4.16671L12.1667 3.26189V4.16671H13.0715Z" fill="white"/>
</svg>
