<svg width="20" height="21" viewBox="0 0 20 21" fill="none" xmlns="http://www.w3.org/2000/svg">
<path fill-rule="evenodd" clip-rule="evenodd" d="M10.0007 6.95247C9.1166 6.95247 8.26875 7.30366 7.64363 7.92878C7.01851 8.55391 6.66732 9.40175 6.66732 10.2858C6.66732 11.1699 7.01851 12.0177 7.64363 12.6428C8.26875 13.268 9.1166 13.6191 10.0007 13.6191C10.8847 13.6191 11.7326 13.268 12.3577 12.6428C12.9828 12.0177 13.334 11.1699 13.334 10.2858C13.334 9.40175 12.9828 8.55391 12.3577 7.92878C11.7326 7.30366 10.8847 6.95247 10.0007 6.95247ZM8.82214 9.10729C9.1347 8.79473 9.55862 8.61914 10.0007 8.61914C10.4427 8.61914 10.8666 8.79473 11.1792 9.10729C11.4917 9.41986 11.6673 9.84378 11.6673 10.2858C11.6673 10.7278 11.4917 11.1518 11.1792 11.4643C10.8666 11.7769 10.4427 11.9525 10.0007 11.9525C9.55862 11.9525 9.1347 11.7769 8.82214 11.4643C8.50958 11.1518 8.33398 10.7278 8.33398 10.2858C8.33398 9.84378 8.50958 9.41986 8.82214 9.10729Z" fill="#A0A9CB"/>
<path fill-rule="evenodd" clip-rule="evenodd" d="M9.15148 1.11914C8.77294 1.11914 8.44196 1.37428 8.3456 1.74035L7.9233 3.34468L6.5816 3.91027L5.55456 2.99654C5.2248 2.70317 4.72349 2.71779 4.4114 3.02988L2.74473 4.69655C2.44281 4.99847 2.41794 5.47974 2.68712 5.81118L3.58723 6.91943L3.03527 8.27737L1.47786 8.64096C1.10075 8.729 0.833984 9.06522 0.833984 9.45247V11.1191C0.833984 11.4949 1.08547 11.8242 1.448 11.9231L3.05773 12.3622L3.62485 13.7076L2.71203 14.7312C2.41802 15.0609 2.43237 15.5627 2.74473 15.8751L4.4114 17.5417C4.71372 17.8441 5.1958 17.8685 5.52719 17.5984L6.63506 16.6953L7.95961 17.2401L8.35934 18.8232C8.45278 19.1932 8.78566 19.4525 9.16732 19.4525H10.834C11.2155 19.4525 11.5483 19.1934 11.6419 18.8236L12.0426 17.2398L13.4115 16.6729C13.5492 16.7884 13.7072 16.924 13.8645 17.0609C14.0207 17.197 14.1659 17.3252 14.2721 17.4194C14.3252 17.4665 14.3684 17.5051 14.3983 17.5317L14.4435 17.5722C14.7731 17.8679 15.2769 17.8548 15.5899 17.5417L17.2566 15.8751C17.5633 15.5684 17.5834 15.0777 17.3029 14.7468L16.3951 13.6764L16.9569 12.3197L18.5436 11.9074C18.9109 11.8119 19.1673 11.4803 19.1673 11.1008V9.45247C19.1673 9.07137 18.9088 8.73883 18.5394 8.64487L16.9625 8.24368L16.4023 6.89025L17.3037 5.82376C17.5834 5.49289 17.5629 5.0029 17.2566 4.69655L15.5899 3.02988C15.2823 2.72229 14.7899 2.70304 14.4592 2.98568L13.4006 3.89054L11.9995 3.31447L11.5858 1.74061C11.4895 1.37441 11.1585 1.11914 10.7798 1.11914H9.15148ZM15.5353 15.2393L14.9652 15.8094L14.9589 15.804C14.6512 15.536 14.2547 15.1969 14.0311 15.0371C13.7971 14.8698 13.4934 14.835 13.2276 14.9451L11.0184 15.8601C10.7753 15.9608 10.594 16.1704 10.5294 16.4256L10.1853 17.7858H9.81638L9.47279 16.4251C9.40815 16.1691 9.22602 15.9589 8.98184 15.8585L6.81017 14.9651C6.52739 14.8488 6.20361 14.8967 5.96661 15.0899L5.0576 15.8309L4.47975 15.2531L5.21927 14.4238C5.43336 14.1837 5.49016 13.8418 5.36521 13.5454L4.43604 11.3413C4.33663 11.1054 4.13437 10.9284 3.88747 10.861L2.50065 10.4827V10.1137L3.83427 9.80232C4.09773 9.74081 4.31494 9.55523 4.41681 9.3046L5.31681 7.09044C5.43128 6.80883 5.38332 6.48723 5.19168 6.25127L4.45458 5.34372L5.03405 4.76425L5.86674 5.50507C6.1068 5.71865 6.44827 5.77518 6.74436 5.65037L8.94852 4.7212C9.18676 4.62077 9.36489 4.41546 9.4307 4.16543L9.79385 2.78581H10.1372L10.493 4.13933C10.5594 4.39198 10.7405 4.59887 10.9821 4.6982L13.2379 5.6257C13.5271 5.74461 13.8586 5.69161 14.0963 5.48843L14.9563 4.75331L15.5361 5.33315L14.8017 6.20202C14.6005 6.44012 14.5489 6.77065 14.6682 7.05871L15.5823 9.26705C15.6829 9.50991 15.8921 9.6911 16.1468 9.75591L17.5006 10.1003V10.4563L16.1361 10.8109C15.8831 10.8767 15.6757 11.0572 15.5757 11.2987L14.6607 13.5087C14.5412 13.7972 14.5931 14.1283 14.7951 14.3664L15.5353 15.2393Z" fill="#A0A9CB"/>
</svg>
