<svg width="20" height="20" viewBox="0 0 20 20" fill="none" xmlns="http://www.w3.org/2000/svg">
<path fill-rule="evenodd" clip-rule="evenodd" d="M10.0007 6.80965C9.1166 6.80965 8.26875 7.16084 7.64363 7.78596C7.01851 8.41108 6.66732 9.25893 6.66732 10.143C6.66732 11.027 7.01851 11.8749 7.64363 12.5C8.26875 13.1251 9.1166 13.4763 10.0007 13.4763C10.8847 13.4763 11.7326 13.1251 12.3577 12.5C12.9828 11.8749 13.334 11.027 13.334 10.143C13.334 9.25893 12.9828 8.41108 12.3577 7.78596C11.7326 7.16084 10.8847 6.80965 10.0007 6.80965ZM8.82214 8.96447C9.1347 8.65191 9.55862 8.47632 10.0007 8.47632C10.4427 8.47632 10.8666 8.65191 11.1792 8.96447C11.4917 9.27703 11.6673 9.70096 11.6673 10.143C11.6673 10.585 11.4917 11.0089 11.1792 11.3215C10.8666 11.6341 10.4427 11.8097 10.0007 11.8097C9.55862 11.8097 9.1347 11.6341 8.82214 11.3215C8.50958 11.0089 8.33398 10.585 8.33398 10.143C8.33398 9.70096 8.50958 9.27703 8.82214 8.96447Z" fill="white"/>
<path fill-rule="evenodd" clip-rule="evenodd" d="M9.15148 0.976318C8.77294 0.976318 8.44196 1.23145 8.3456 1.59752L7.9233 3.20186L6.5816 3.76745L5.55456 2.85372C5.2248 2.56034 4.72349 2.57497 4.4114 2.88706L2.74473 4.55373C2.44281 4.85565 2.41794 5.33692 2.68712 5.66836L3.58723 6.77661L3.03527 8.13455L1.47786 8.49814C1.10075 8.58618 0.833984 8.9224 0.833984 9.30965V10.9763C0.833984 11.3521 1.08547 11.6814 1.448 11.7803L3.05773 12.2194L3.62485 13.5647L2.71203 14.5883C2.41802 14.918 2.43237 15.4199 2.74473 15.7322L4.4114 17.3989C4.71372 17.7012 5.1958 17.7257 5.52719 17.4556L6.63506 16.5524L7.95961 17.0973L8.35934 18.6803C8.45278 19.0504 8.78566 19.3097 9.16732 19.3097H10.834C11.2155 19.3097 11.5483 19.0506 11.6419 18.6807L12.0426 17.097L13.4115 16.5301C13.5492 16.6456 13.7072 16.7812 13.8645 16.9181C14.0207 17.0541 14.1659 17.1823 14.2721 17.2766C14.3252 17.3237 14.3684 17.3622 14.3983 17.3889L14.4435 17.4294C14.7731 17.725 15.2769 17.712 15.5899 17.3989L17.2566 15.7322C17.5633 15.4255 17.5834 14.9348 17.3029 14.604L16.3951 13.5336L16.9569 12.1768L18.5436 11.7645C18.9109 11.6691 19.1673 11.3375 19.1673 10.958V9.30965C19.1673 8.92855 18.9088 8.59601 18.5394 8.50204L16.9625 8.10085L16.4023 6.74743L17.3037 5.68094C17.5834 5.35007 17.5629 4.86008 17.2566 4.55373L15.5899 2.88706C15.2823 2.57947 14.7899 2.56022 14.4592 2.84286L13.4006 3.74771L11.9995 3.17165L11.5858 1.59779C11.4895 1.23159 11.1585 0.976318 10.7798 0.976318H9.15148ZM15.5353 15.0965L14.9652 15.6666L14.9589 15.6612C14.6512 15.3932 14.2547 15.0541 14.0311 14.8942C13.7971 14.7269 13.4934 14.6922 13.2276 14.8022L11.0184 15.7172C10.7753 15.818 10.594 16.0276 10.5294 16.2827L10.1853 17.643H9.81638L9.47279 16.2823C9.40815 16.0263 9.22602 15.8161 8.98184 15.7156L6.81017 14.8223C6.52739 14.706 6.20361 14.7539 5.96661 14.9471L5.0576 15.6881L4.47975 15.1102L5.21927 14.281C5.43336 14.0409 5.49016 13.699 5.36521 13.4026L4.43604 11.1984C4.33663 10.9626 4.13437 10.7856 3.88747 10.7182L2.50065 10.3399V9.97084L3.83427 9.6595C4.09773 9.59799 4.31494 9.41241 4.41681 9.16178L5.31681 6.94761C5.43128 6.666 5.38332 6.34441 5.19168 6.10845L4.45458 5.2009L5.03405 4.62143L5.86674 5.36225C6.1068 5.57583 6.44827 5.63236 6.74436 5.50754L8.94852 4.57838C9.18676 4.47795 9.36489 4.27263 9.4307 4.02261L9.79385 2.64298H10.1372L10.493 3.99651C10.5594 4.24916 10.7405 4.45604 10.9821 4.55538L13.2379 5.48288C13.5271 5.60179 13.8586 5.54879 14.0963 5.34561L14.9563 4.61049L15.5361 5.19033L14.8017 6.05919C14.6005 6.2973 14.5489 6.62783 14.6682 6.91589L15.5823 9.12422C15.6829 9.36709 15.8921 9.54828 16.1468 9.61309L17.5006 9.95752V10.3135L16.1361 10.6681C15.8831 10.7338 15.6757 10.9144 15.5757 11.1559L14.6607 13.3659C14.5412 13.6544 14.5931 13.9855 14.7951 14.2236L15.5353 15.0965Z" fill="white"/>
</svg>
